<?xml version="1.0" encoding="UTF-8"?> <!-- Generator: Adobe Illustrator 24.3.0, SVG Export Plug-In . SVG Version: 6.00 Build 0) --> <svg xmlns="http://www.w3.org/2000/svg" xmlns:xlink="http://www.w3.org/1999/xlink" id="Layer_1" x="0px" y="0px" viewBox="0 0 270.55 46.56" style="enable-background:new 0 0 270.55 46.56;" xml:space="preserve"> <style type="text/css"> .st0{fill:#18214B;} .st1{fill:#32ADDF;} </style> <polygon class="st0" points="129.66,3.29 118.12,31.65 106.63,3.29 97.68,3.29 114.23,42.91 121.89,42.91 138.44,3.29 "></polygon> <path class="st0" d="M106.43,35.54H82.01V25.41h20.19l-2.99-7.15h-17.2v-7.6h14.03L93.01,3.4H69.85v0.57 c1.14,0.72,2.22,1.53,3.23,2.45c4.72,4.33,7.12,9.94,7.12,16.68c0,6.78-2.4,12.41-7.12,16.73c-1.01,0.92-2.09,1.72-3.23,2.45v0.52 h39.61L106.43,35.54z"></path> <g> <path class="st1" d="M25.85,35.17H6.88L5.5,29.01L26.79,3.87h7.21v24.24H46.9v7.06H33.99v8.53h-8.15V35.17z M25.85,28.11V15.79 L15.53,28.11H25.85z"></path> </g> <path class="st0" d="M68.96,8.92c-4-3.66-9.23-5.52-15.59-5.52H38.62v21.54h8.11V10.66h5.97c8.78,0,13.96,4.62,13.96,12.44 c0,7.82-5.18,12.44-13.96,12.44h-1.84v7.26h2.52c6.36,0,11.6-1.8,15.59-5.46c4-3.66,6.02-8.44,6.02-14.24 C74.98,17.3,72.95,12.57,68.96,8.92z"></path> <g> <path d="M150.67,7.97v4.09h5.89v1.44h-5.89v4.75h-1.68V6.51h8.29v1.46H150.67z"></path> <path d="M160.55,17.77c-0.7-0.39-1.26-0.93-1.65-1.62s-0.6-1.47-0.6-2.34c0-0.87,0.2-1.65,0.6-2.34c0.4-0.69,0.95-1.23,1.65-1.61 s1.5-0.58,2.38-0.58c0.88,0,1.67,0.19,2.37,0.58s1.25,0.92,1.64,1.61c0.4,0.69,0.6,1.47,0.6,2.34c0,0.87-0.2,1.65-0.6,2.34 c-0.4,0.69-0.95,1.23-1.64,1.62s-1.49,0.59-2.37,0.59C162.05,18.35,161.25,18.16,160.55,17.77z M164.47,16.55 c0.45-0.26,0.81-0.63,1.07-1.11s0.39-1.02,0.39-1.64s-0.13-1.16-0.39-1.64c-0.26-0.48-0.61-0.84-1.07-1.1 c-0.45-0.26-0.96-0.39-1.54-0.39c-0.57,0-1.08,0.13-1.54,0.39c-0.45,0.26-0.81,0.62-1.07,1.1c-0.26,0.48-0.39,1.02-0.39,1.64 s0.13,1.16,0.39,1.64s0.62,0.84,1.07,1.11c0.45,0.26,0.96,0.39,1.54,0.39C163.5,16.94,164.01,16.81,164.47,16.55z"></path> <path d="M172.56,9.68c0.55-0.27,1.21-0.4,2-0.4v1.56c-0.09-0.01-0.21-0.02-0.37-0.02c-0.87,0-1.56,0.26-2.06,0.78 c-0.5,0.52-0.75,1.26-0.75,2.22v4.43h-1.61V9.36h1.54v1.49C171.6,10.34,172.01,9.95,172.56,9.68z"></path> <path d="M148.99,26.64h4.95c1.24,0,2.34,0.25,3.31,0.74c0.96,0.49,1.71,1.18,2.24,2.07c0.53,0.89,0.8,1.91,0.8,3.06 c0,1.15-0.27,2.17-0.8,3.06c-0.53,0.89-1.28,1.58-2.24,2.07c-0.96,0.49-2.06,0.74-3.31,0.74h-4.95V26.64z M153.84,36.93 c0.95,0,1.79-0.18,2.51-0.55c0.72-0.37,1.28-0.89,1.67-1.55s0.59-1.43,0.59-2.31c0-0.87-0.2-1.64-0.59-2.31s-0.95-1.18-1.67-1.55 c-0.72-0.37-1.56-0.55-2.51-0.55h-3.17v8.82H153.84z"></path> <path d="M170.62,34.48h-7.21c0.1,0.78,0.44,1.41,1.03,1.89c0.59,0.48,1.32,0.71,2.19,0.71c1.06,0,1.92-0.36,2.57-1.07l0.89,1.04 c-0.4,0.47-0.9,0.83-1.5,1.07c-0.6,0.25-1.27,0.37-2,0.37c-0.94,0-1.77-0.19-2.5-0.58c-0.73-0.39-1.29-0.93-1.69-1.62 c-0.4-0.69-0.6-1.48-0.6-2.35c0-0.86,0.19-1.64,0.58-2.33c0.39-0.69,0.92-1.23,1.59-1.62c0.68-0.39,1.44-0.58,2.29-0.58 c0.85,0,1.61,0.19,2.27,0.58c0.67,0.39,1.19,0.93,1.56,1.62c0.37,0.69,0.56,1.49,0.56,2.38C170.65,34.11,170.64,34.27,170.62,34.48 z M164.32,31.47c-0.52,0.47-0.82,1.08-0.91,1.85h5.7c-0.09-0.75-0.39-1.36-0.91-1.84c-0.52-0.48-1.17-0.71-1.94-0.71 C165.48,30.77,164.84,31,164.32,31.47z"></path> <path d="M180.58,29.49l-3.89,8.89h-1.64l-3.89-8.89h1.68l3.05,7.13l3.12-7.13H180.58z"></path> <path d="M189.84,34.48h-7.21c0.1,0.78,0.44,1.41,1.03,1.89c0.59,0.48,1.32,0.71,2.19,0.71c1.06,0,1.92-0.36,2.57-1.07l0.89,1.04 c-0.4,0.47-0.9,0.83-1.5,1.07c-0.6,0.25-1.27,0.37-2,0.37c-0.94,0-1.77-0.19-2.5-0.58c-0.73-0.39-1.29-0.93-1.69-1.62 c-0.4-0.69-0.6-1.48-0.6-2.35c0-0.86,0.19-1.64,0.58-2.33c0.39-0.69,0.92-1.23,1.59-1.62c0.68-0.39,1.44-0.58,2.29-0.58 c0.85,0,1.61,0.19,2.27,0.58c0.67,0.39,1.19,0.93,1.56,1.62c0.37,0.69,0.56,1.49,0.56,2.38C189.88,34.11,189.86,34.27,189.84,34.48 z M183.54,31.47c-0.52,0.47-0.82,1.08-0.91,1.85h5.7c-0.09-0.75-0.39-1.36-0.91-1.84c-0.52-0.48-1.17-0.71-1.94-0.71 C184.71,30.77,184.06,31,183.54,31.47z"></path> <path d="M192.11,25.94h1.61v12.45h-1.61V25.94z"></path> <path d="M198.21,37.9c-0.7-0.39-1.26-0.93-1.65-1.62s-0.6-1.47-0.6-2.34c0-0.87,0.2-1.65,0.6-2.34c0.4-0.69,0.95-1.23,1.65-1.61 s1.5-0.58,2.38-0.58c0.88,0,1.67,0.19,2.37,0.58s1.25,0.92,1.64,1.61c0.4,0.69,0.6,1.47,0.6,2.34c0,0.87-0.2,1.65-0.6,2.34 c-0.4,0.69-0.95,1.23-1.64,1.62s-1.49,0.59-2.37,0.59C199.71,38.49,198.92,38.29,198.21,37.9z M202.13,36.68 c0.45-0.26,0.81-0.63,1.07-1.11s0.39-1.02,0.39-1.64s-0.13-1.16-0.39-1.64c-0.26-0.48-0.61-0.84-1.07-1.1 c-0.45-0.26-0.96-0.39-1.54-0.39c-0.57,0-1.08,0.13-1.54,0.39c-0.45,0.26-0.81,0.62-1.07,1.1c-0.26,0.48-0.39,1.02-0.39,1.64 s0.13,1.16,0.39,1.64s0.62,0.84,1.07,1.11c0.45,0.26,0.96,0.39,1.54,0.39C201.17,37.08,201.68,36.95,202.13,36.68z"></path> <path d="M214.47,29.98c0.68,0.38,1.22,0.91,1.6,1.59c0.39,0.68,0.58,1.47,0.58,2.37s-0.19,1.69-0.58,2.37 c-0.39,0.69-0.92,1.22-1.6,1.6s-1.45,0.57-2.31,0.57c-0.64,0-1.22-0.12-1.75-0.37c-0.53-0.25-0.98-0.6-1.35-1.07v4.6h-1.61V29.49 h1.54v1.41c0.36-0.49,0.81-0.86,1.36-1.12c0.55-0.25,1.15-0.38,1.81-0.38C213.02,29.41,213.79,29.6,214.47,29.98z M213.56,36.68 c0.45-0.26,0.81-0.63,1.07-1.11c0.26-0.48,0.39-1.02,0.39-1.64s-0.13-1.16-0.39-1.64c-0.26-0.48-0.62-0.84-1.07-1.1 s-0.96-0.39-1.54-0.39c-0.56,0-1.07,0.13-1.52,0.39c-0.45,0.26-0.81,0.63-1.07,1.1c-0.26,0.47-0.39,1.01-0.39,1.63 s0.13,1.16,0.39,1.64s0.62,0.84,1.07,1.11c0.46,0.26,0.97,0.39,1.53,0.39C212.59,37.08,213.1,36.95,213.56,36.68z"></path> <path d="M232.67,30.38c0.65,0.65,0.98,1.61,0.98,2.89v5.12h-1.61v-4.93c0-0.86-0.2-1.51-0.6-1.95c-0.4-0.44-0.96-0.65-1.7-0.65 c-0.82,0-1.47,0.25-1.95,0.76c-0.48,0.51-0.72,1.24-0.72,2.19v4.58h-1.61v-4.93c0-0.86-0.2-1.51-0.6-1.95 c-0.4-0.44-0.96-0.65-1.7-0.65c-0.82,0-1.47,0.25-1.95,0.76c-0.48,0.51-0.72,1.24-0.72,2.19v4.58h-1.61v-8.89h1.54v1.33 c0.32-0.46,0.75-0.81,1.27-1.05c0.53-0.24,1.12-0.36,1.8-0.36c0.69,0,1.31,0.14,1.85,0.42c0.54,0.28,0.95,0.69,1.24,1.22 c0.34-0.51,0.8-0.92,1.4-1.21c0.6-0.29,1.27-0.44,2.02-0.44C231.12,29.41,232.01,29.73,232.67,30.38z"></path> <path d="M244.67,34.48h-7.21c0.1,0.78,0.44,1.41,1.03,1.89c0.59,0.48,1.32,0.71,2.19,0.71c1.06,0,1.92-0.36,2.57-1.07l0.89,1.04 c-0.4,0.47-0.9,0.83-1.5,1.07c-0.6,0.25-1.27,0.37-2,0.37c-0.94,0-1.77-0.19-2.5-0.58c-0.73-0.39-1.29-0.93-1.69-1.62 c-0.4-0.69-0.6-1.48-0.6-2.35c0-0.86,0.19-1.64,0.58-2.33c0.39-0.69,0.92-1.23,1.59-1.62c0.68-0.39,1.44-0.58,2.29-0.58 c0.85,0,1.61,0.19,2.27,0.58c0.67,0.39,1.19,0.93,1.56,1.62c0.37,0.69,0.56,1.49,0.56,2.38C244.7,34.11,244.69,34.27,244.67,34.48z M238.37,31.47c-0.52,0.47-0.82,1.08-0.91,1.85h5.7c-0.09-0.75-0.39-1.36-0.91-1.84c-0.52-0.48-1.17-0.71-1.94-0.71 C239.54,30.77,238.89,31,238.37,31.47z"></path> <path d="M254.38,30.39c0.67,0.65,1,1.61,1,2.88v5.12h-1.61v-4.93c0-0.86-0.21-1.51-0.62-1.95c-0.41-0.44-1.01-0.65-1.78-0.65 c-0.87,0-1.56,0.25-2.06,0.76c-0.5,0.51-0.75,1.24-0.75,2.19v4.58h-1.61v-8.89h1.54v1.34c0.32-0.46,0.76-0.81,1.32-1.06 c0.55-0.25,1.18-0.37,1.89-0.37C252.81,29.41,253.71,29.74,254.38,30.39z"></path> <path d="M263.36,37.87c-0.23,0.2-0.53,0.35-0.87,0.46c-0.35,0.11-0.7,0.16-1.07,0.16c-0.9,0-1.59-0.24-2.08-0.72 c-0.49-0.48-0.74-1.17-0.74-2.06v-4.88h-1.51v-1.33h1.51v-1.95h1.61v1.95h2.55v1.33h-2.55v4.81c0,0.48,0.12,0.85,0.36,1.11 c0.24,0.26,0.58,0.39,1.03,0.39c0.49,0,0.91-0.14,1.26-0.42L263.36,37.87z"></path> </g> </svg> 